<mxfile host="app.diagrams.net" modified="2022-08-12T04:56:15.466Z" agent="5.0 (Windows NT 10.0; Win64; x64) AppleWebKit/537.36 (KHTML, like Gecko) Chrome/104.0.0.0 Safari/537.36" etag="vuTusMNIIZZLppVZ75iz" version="20.2.3" type="github">
  <diagram id="hdWwr_rjckb36ivZpKUp" name="페이지-1">
    <mxGraphModel dx="544" dy="928" grid="1" gridSize="10" guides="1" tooltips="1" connect="1" arrows="1" fold="1" page="1" pageScale="1" pageWidth="827" pageHeight="1169" math="0" shadow="0">
      <root>
        <mxCell id="0" />
        <mxCell id="1" parent="0" />
        <mxCell id="SNk0n_PQKF_pq5BwiAoy-14" value="" style="rounded=0;whiteSpace=wrap;html=1;fillColor=none;dashed=1;strokeColor=#FF0000;" parent="1" vertex="1">
          <mxGeometry x="310" y="450" width="180" height="40" as="geometry" />
        </mxCell>
        <mxCell id="SNk0n_PQKF_pq5BwiAoy-11" value="" style="rounded=0;whiteSpace=wrap;html=1;fillColor=none;dashed=1;strokeColor=#FF0000;" parent="1" vertex="1">
          <mxGeometry x="100" y="450" width="190" height="40" as="geometry" />
        </mxCell>
        <mxCell id="SNk0n_PQKF_pq5BwiAoy-21" value="" style="rounded=0;whiteSpace=wrap;html=1;fillColor=none;dashed=1;strokeColor=#000000;" parent="1" vertex="1">
          <mxGeometry x="100" y="340" width="390" height="100" as="geometry" />
        </mxCell>
        <mxCell id="SNk0n_PQKF_pq5BwiAoy-1" value="" style="rounded=0;whiteSpace=wrap;html=1;fillColor=#d5e8d4;strokeColor=#82b366;" parent="1" vertex="1">
          <mxGeometry x="119" y="480" width="160" height="60" as="geometry" />
        </mxCell>
        <mxCell id="SNk0n_PQKF_pq5BwiAoy-2" value="" style="rounded=0;whiteSpace=wrap;html=1;fillColor=#d5e8d4;strokeColor=#82b366;" parent="1" vertex="1">
          <mxGeometry x="320" y="480" width="160" height="60" as="geometry" />
        </mxCell>
        <mxCell id="gxjJ81oz84Ku13y5mBV7-11" style="edgeStyle=orthogonalEdgeStyle;rounded=0;orthogonalLoop=1;jettySize=auto;html=1;exitX=0.5;exitY=1;exitDx=0;exitDy=0;entryX=0.5;entryY=0;entryDx=0;entryDy=0;dashed=1;endArrow=none;endFill=0;strokeColor=#000000;strokeWidth=1;" edge="1" parent="1" source="SNk0n_PQKF_pq5BwiAoy-3" target="SNk0n_PQKF_pq5BwiAoy-7">
          <mxGeometry relative="1" as="geometry" />
        </mxCell>
        <mxCell id="SNk0n_PQKF_pq5BwiAoy-3" value="ingress_sbox&lt;br&gt;" style="rounded=0;whiteSpace=wrap;html=1;fillColor=#dae8fc;strokeColor=#6c8ebf;" parent="1" vertex="1">
          <mxGeometry x="140" y="420" width="120" height="40" as="geometry" />
        </mxCell>
        <mxCell id="SNk0n_PQKF_pq5BwiAoy-6" style="edgeStyle=orthogonalEdgeStyle;rounded=0;orthogonalLoop=1;jettySize=auto;html=1;exitX=0.5;exitY=1;exitDx=0;exitDy=0;entryX=0.5;entryY=1;entryDx=0;entryDy=0;dashed=1;endArrow=none;endFill=0;strokeColor=#FF0000;strokeWidth=2;" parent="1" source="SNk0n_PQKF_pq5BwiAoy-7" target="SNk0n_PQKF_pq5BwiAoy-9" edge="1">
          <mxGeometry relative="1" as="geometry">
            <Array as="points">
              <mxPoint x="200" y="560" />
              <mxPoint x="400" y="560" />
            </Array>
          </mxGeometry>
        </mxCell>
        <mxCell id="SNk0n_PQKF_pq5BwiAoy-4" value="eth0" style="rounded=0;whiteSpace=wrap;html=1;fillColor=#ffe6cc;strokeColor=#d79b00;" parent="1" vertex="1">
          <mxGeometry x="160" y="520" width="80" height="20" as="geometry" />
        </mxCell>
        <mxCell id="SNk0n_PQKF_pq5BwiAoy-5" value="eth0" style="rounded=0;whiteSpace=wrap;html=1;fillColor=#ffe6cc;strokeColor=#d79b00;" parent="1" vertex="1">
          <mxGeometry x="360" y="520" width="80" height="20" as="geometry" />
        </mxCell>
        <mxCell id="SNk0n_PQKF_pq5BwiAoy-7" value="docker_gwbridge" style="rounded=0;whiteSpace=wrap;html=1;fillColor=#fff2cc;strokeColor=#d6b656;" parent="1" vertex="1">
          <mxGeometry x="140" y="480" width="120" height="20" as="geometry" />
        </mxCell>
        <mxCell id="SNk0n_PQKF_pq5BwiAoy-9" value="docker_gwbridge" style="rounded=0;whiteSpace=wrap;html=1;fillColor=#fff2cc;strokeColor=#d6b656;" parent="1" vertex="1">
          <mxGeometry x="340" y="480" width="120" height="20" as="geometry" />
        </mxCell>
        <mxCell id="gxjJ81oz84Ku13y5mBV7-17" style="edgeStyle=orthogonalEdgeStyle;rounded=0;orthogonalLoop=1;jettySize=auto;html=1;exitX=0.5;exitY=1;exitDx=0;exitDy=0;dashed=1;endArrow=none;endFill=0;strokeColor=#000000;strokeWidth=1;" edge="1" parent="1" source="SNk0n_PQKF_pq5BwiAoy-10" target="SNk0n_PQKF_pq5BwiAoy-14">
          <mxGeometry relative="1" as="geometry" />
        </mxCell>
        <mxCell id="SNk0n_PQKF_pq5BwiAoy-10" value="ingress_sbox&lt;br&gt;" style="rounded=0;whiteSpace=wrap;html=1;fillColor=#dae8fc;strokeColor=#6c8ebf;" parent="1" vertex="1">
          <mxGeometry x="340" y="420" width="120" height="40" as="geometry" />
        </mxCell>
        <mxCell id="SNk0n_PQKF_pq5BwiAoy-12" value="docker_gwbridge &lt;br&gt;network area&lt;br&gt;172.18.0.0/16" style="text;html=1;align=right;verticalAlign=middle;resizable=0;points=[];autosize=1;strokeColor=none;fillColor=none;fontSize=6;rotation=270;" parent="1" vertex="1">
          <mxGeometry x="30" y="470" width="100" height="50" as="geometry" />
        </mxCell>
        <mxCell id="SNk0n_PQKF_pq5BwiAoy-13" value="docker_gwbridge &lt;br&gt;network area&lt;br&gt;172.18.0.0/16" style="text;html=1;align=left;verticalAlign=middle;resizable=0;points=[];autosize=1;strokeColor=none;fillColor=none;fontSize=6;rotation=90;" parent="1" vertex="1">
          <mxGeometry x="468" y="474" width="100" height="50" as="geometry" />
        </mxCell>
        <mxCell id="gxjJ81oz84Ku13y5mBV7-2" style="edgeStyle=orthogonalEdgeStyle;rounded=0;orthogonalLoop=1;jettySize=auto;html=1;entryX=0.25;entryY=0;entryDx=0;entryDy=0;endArrow=none;endFill=0;dashed=1;" edge="1" parent="1" source="SNk0n_PQKF_pq5BwiAoy-15" target="SNk0n_PQKF_pq5BwiAoy-7">
          <mxGeometry relative="1" as="geometry">
            <Array as="points">
              <mxPoint x="130" y="470" />
              <mxPoint x="168" y="470" />
            </Array>
          </mxGeometry>
        </mxCell>
        <mxCell id="gxjJ81oz84Ku13y5mBV7-8" style="edgeStyle=orthogonalEdgeStyle;rounded=0;orthogonalLoop=1;jettySize=auto;html=1;exitX=0.75;exitY=1;exitDx=0;exitDy=0;entryX=0.25;entryY=0;entryDx=0;entryDy=0;dashed=1;endArrow=none;endFill=0;strokeColor=#000000;strokeWidth=1;" edge="1" parent="1" source="SNk0n_PQKF_pq5BwiAoy-15" target="SNk0n_PQKF_pq5BwiAoy-3">
          <mxGeometry relative="1" as="geometry" />
        </mxCell>
        <mxCell id="SNk0n_PQKF_pq5BwiAoy-15" value="Container1" style="rounded=0;whiteSpace=wrap;html=1;fontSize=6;strokeColor=#9673a6;fillColor=#e1d5e7;" parent="1" vertex="1">
          <mxGeometry x="119" y="350" width="71" height="50" as="geometry" />
        </mxCell>
        <mxCell id="gxjJ81oz84Ku13y5mBV7-3" style="edgeStyle=orthogonalEdgeStyle;rounded=0;orthogonalLoop=1;jettySize=auto;html=1;entryX=0.75;entryY=0;entryDx=0;entryDy=0;dashed=1;endArrow=none;endFill=0;" edge="1" parent="1" source="SNk0n_PQKF_pq5BwiAoy-17" target="SNk0n_PQKF_pq5BwiAoy-7">
          <mxGeometry relative="1" as="geometry">
            <Array as="points">
              <mxPoint x="270" y="470" />
              <mxPoint x="223" y="470" />
            </Array>
          </mxGeometry>
        </mxCell>
        <mxCell id="gxjJ81oz84Ku13y5mBV7-9" style="edgeStyle=orthogonalEdgeStyle;rounded=0;orthogonalLoop=1;jettySize=auto;html=1;exitX=0.25;exitY=1;exitDx=0;exitDy=0;entryX=0.75;entryY=0;entryDx=0;entryDy=0;dashed=1;endArrow=none;endFill=0;strokeColor=#000000;strokeWidth=1;" edge="1" parent="1" source="SNk0n_PQKF_pq5BwiAoy-17" target="SNk0n_PQKF_pq5BwiAoy-3">
          <mxGeometry relative="1" as="geometry" />
        </mxCell>
        <mxCell id="SNk0n_PQKF_pq5BwiAoy-17" value="Container2" style="rounded=0;whiteSpace=wrap;html=1;fontSize=6;strokeColor=#9673a6;fillColor=#e1d5e7;" parent="1" vertex="1">
          <mxGeometry x="210" y="350" width="69" height="50" as="geometry" />
        </mxCell>
        <mxCell id="gxjJ81oz84Ku13y5mBV7-12" style="edgeStyle=orthogonalEdgeStyle;rounded=0;orthogonalLoop=1;jettySize=auto;html=1;exitX=0.25;exitY=1;exitDx=0;exitDy=0;entryX=0.333;entryY=0.75;entryDx=0;entryDy=0;entryPerimeter=0;dashed=1;endArrow=none;endFill=0;strokeColor=#000000;strokeWidth=1;" edge="1" parent="1" source="SNk0n_PQKF_pq5BwiAoy-19" target="SNk0n_PQKF_pq5BwiAoy-14">
          <mxGeometry relative="1" as="geometry">
            <Array as="points">
              <mxPoint x="330" y="400" />
              <mxPoint x="330" y="470" />
              <mxPoint x="370" y="470" />
            </Array>
          </mxGeometry>
        </mxCell>
        <mxCell id="gxjJ81oz84Ku13y5mBV7-15" style="edgeStyle=orthogonalEdgeStyle;rounded=0;orthogonalLoop=1;jettySize=auto;html=1;exitX=0.75;exitY=1;exitDx=0;exitDy=0;entryX=0.25;entryY=0;entryDx=0;entryDy=0;dashed=1;endArrow=none;endFill=0;strokeColor=#000000;strokeWidth=1;" edge="1" parent="1" source="SNk0n_PQKF_pq5BwiAoy-19" target="SNk0n_PQKF_pq5BwiAoy-10">
          <mxGeometry relative="1" as="geometry" />
        </mxCell>
        <mxCell id="SNk0n_PQKF_pq5BwiAoy-19" value="Container3" style="rounded=0;whiteSpace=wrap;html=1;fontSize=6;strokeColor=#9673a6;fillColor=#e1d5e7;" parent="1" vertex="1">
          <mxGeometry x="320" y="350" width="69" height="50" as="geometry" />
        </mxCell>
        <mxCell id="gxjJ81oz84Ku13y5mBV7-14" style="edgeStyle=orthogonalEdgeStyle;rounded=0;orthogonalLoop=1;jettySize=auto;html=1;exitX=0.75;exitY=1;exitDx=0;exitDy=0;entryX=0.75;entryY=0;entryDx=0;entryDy=0;dashed=1;endArrow=none;endFill=0;strokeColor=#000000;strokeWidth=1;" edge="1" parent="1" source="SNk0n_PQKF_pq5BwiAoy-20" target="SNk0n_PQKF_pq5BwiAoy-9">
          <mxGeometry relative="1" as="geometry">
            <Array as="points">
              <mxPoint x="470" y="400" />
              <mxPoint x="470" y="470" />
              <mxPoint x="430" y="470" />
            </Array>
          </mxGeometry>
        </mxCell>
        <mxCell id="gxjJ81oz84Ku13y5mBV7-16" style="edgeStyle=orthogonalEdgeStyle;rounded=0;orthogonalLoop=1;jettySize=auto;html=1;exitX=0.25;exitY=1;exitDx=0;exitDy=0;entryX=0.75;entryY=0;entryDx=0;entryDy=0;dashed=1;endArrow=none;endFill=0;strokeColor=#000000;strokeWidth=1;" edge="1" parent="1" source="SNk0n_PQKF_pq5BwiAoy-20" target="SNk0n_PQKF_pq5BwiAoy-10">
          <mxGeometry relative="1" as="geometry" />
        </mxCell>
        <mxCell id="SNk0n_PQKF_pq5BwiAoy-20" value="Container4" style="rounded=0;whiteSpace=wrap;html=1;fontSize=6;strokeColor=#9673a6;fillColor=#e1d5e7;" parent="1" vertex="1">
          <mxGeometry x="411" y="350" width="69" height="50" as="geometry" />
        </mxCell>
        <mxCell id="SNk0n_PQKF_pq5BwiAoy-22" value="ingress network area&lt;br&gt;172.18.0.0/16" style="text;html=1;align=left;verticalAlign=middle;resizable=0;points=[];autosize=1;strokeColor=none;fillColor=none;fontSize=6;rotation=0;" parent="1" vertex="1">
          <mxGeometry x="100" y="300" width="120" height="40" as="geometry" />
        </mxCell>
        <mxCell id="gxjJ81oz84Ku13y5mBV7-20" value="Manager" style="text;html=1;align=center;verticalAlign=middle;resizable=0;points=[];autosize=1;strokeColor=none;fillColor=none;fontSize=10;fontFamily=Verdana;" vertex="1" parent="1">
          <mxGeometry x="134" y="531" width="70" height="30" as="geometry" />
        </mxCell>
        <mxCell id="gxjJ81oz84Ku13y5mBV7-21" value="Worker" style="text;html=1;align=center;verticalAlign=middle;resizable=0;points=[];autosize=1;strokeColor=none;fillColor=none;fontSize=10;fontFamily=Verdana;" vertex="1" parent="1">
          <mxGeometry x="335" y="531" width="60" height="30" as="geometry" />
        </mxCell>
      </root>
    </mxGraphModel>
  </diagram>
</mxfile>
